<mxfile host="app.diagrams.net" modified="2020-10-11T15:39:19.767Z" agent="5.0 (Macintosh; Intel Mac OS X 10_14_6) AppleWebKit/537.36 (KHTML, like Gecko) Chrome/86.0.4240.75 Safari/537.36" etag="A_L6Xx0sfAmS89J7EuUR" version="13.7.9" type="github">
  <diagram name="Page-1" id="74e2e168-ea6b-b213-b513-2b3c1d86103e">
    <mxGraphModel dx="1310" dy="703" grid="1" gridSize="10" guides="1" tooltips="1" connect="1" arrows="1" fold="1" page="1" pageScale="1" pageWidth="1100" pageHeight="850" background="#ffffff" math="0" shadow="0">
      <root>
        <mxCell id="0" />
        <mxCell id="1" parent="0" />
        <mxCell id="77e6c97f196da883-1" value="Conferences Search Engine Optimization" style="swimlane;html=1;childLayout=stackLayout;startSize=20;rounded=0;shadow=0;labelBackgroundColor=none;strokeWidth=1;fontFamily=Verdana;fontSize=8;align=center;" parent="1" vertex="1">
          <mxGeometry x="70" y="40" width="890" height="690" as="geometry" />
        </mxCell>
        <mxCell id="77e6c97f196da883-2" value="Views" style="swimlane;html=1;startSize=20;" parent="77e6c97f196da883-1" vertex="1">
          <mxGeometry y="20" width="260" height="670" as="geometry" />
        </mxCell>
        <mxCell id="JHZnZfGuYtohOw9sr2TH-11" value="output:&lt;br&gt;meta conference image, title, description, keywords" style="shape=parallelogram;perimeter=parallelogramPerimeter;whiteSpace=wrap;html=1;fixedSize=1;rounded=0;" vertex="1" parent="77e6c97f196da883-2">
          <mxGeometry x="35" y="210" width="180" height="60" as="geometry" />
        </mxCell>
        <mxCell id="JHZnZfGuYtohOw9sr2TH-25" style="edgeStyle=orthogonalEdgeStyle;rounded=1;orthogonalLoop=1;jettySize=auto;html=1;entryX=0.5;entryY=0;entryDx=0;entryDy=0;exitX=0;exitY=0.5;exitDx=0;exitDy=0;" edge="1" parent="77e6c97f196da883-2" source="JHZnZfGuYtohOw9sr2TH-23" target="JHZnZfGuYtohOw9sr2TH-21">
          <mxGeometry relative="1" as="geometry">
            <mxPoint x="20" y="570" as="sourcePoint" />
            <Array as="points">
              <mxPoint x="40" y="485" />
              <mxPoint x="40" y="300" />
              <mxPoint x="130" y="300" />
            </Array>
          </mxGeometry>
        </mxCell>
        <mxCell id="JHZnZfGuYtohOw9sr2TH-23" value="write conference slug (url), datetime, changefreq, and priority&lt;br&gt;index++" style="whiteSpace=wrap;html=1;rounded=0;" vertex="1" parent="77e6c97f196da883-2">
          <mxGeometry x="70" y="450" width="120" height="70" as="geometry" />
        </mxCell>
        <mxCell id="JHZnZfGuYtohOw9sr2TH-2" value="start" style="ellipse;whiteSpace=wrap;html=1;" vertex="1" parent="77e6c97f196da883-2">
          <mxGeometry x="70" y="40" width="120" height="40" as="geometry" />
        </mxCell>
        <mxCell id="JHZnZfGuYtohOw9sr2TH-4" value="" style="edgeStyle=orthogonalEdgeStyle;rounded=0;orthogonalLoop=1;jettySize=auto;html=1;" edge="1" parent="77e6c97f196da883-2" source="JHZnZfGuYtohOw9sr2TH-2" target="JHZnZfGuYtohOw9sr2TH-3">
          <mxGeometry relative="1" as="geometry" />
        </mxCell>
        <mxCell id="JHZnZfGuYtohOw9sr2TH-3" value="get conference tag or conference slug (from conference page),&lt;br&gt;and page links" style="shape=parallelogram;perimeter=parallelogramPerimeter;whiteSpace=wrap;html=1;fixedSize=1;" vertex="1" parent="77e6c97f196da883-2">
          <mxGeometry x="45" y="120" width="170" height="60" as="geometry" />
        </mxCell>
        <mxCell id="JHZnZfGuYtohOw9sr2TH-26" value="No" style="edgeStyle=orthogonalEdgeStyle;rounded=1;orthogonalLoop=1;jettySize=auto;html=1;entryX=0.5;entryY=0;entryDx=0;entryDy=0;" edge="1" parent="77e6c97f196da883-2" source="JHZnZfGuYtohOw9sr2TH-21" target="JHZnZfGuYtohOw9sr2TH-13">
          <mxGeometry relative="1" as="geometry">
            <Array as="points">
              <mxPoint x="230" y="365" />
              <mxPoint x="230" y="550" />
              <mxPoint x="120" y="550" />
            </Array>
          </mxGeometry>
        </mxCell>
        <mxCell id="JHZnZfGuYtohOw9sr2TH-21" value="while index &amp;lt; total count(array)" style="rhombus;whiteSpace=wrap;html=1;rounded=0;" vertex="1" parent="77e6c97f196da883-2">
          <mxGeometry x="65" y="325" width="130" height="80" as="geometry" />
        </mxCell>
        <mxCell id="JHZnZfGuYtohOw9sr2TH-24" value="Yes" style="edgeStyle=orthogonalEdgeStyle;rounded=1;orthogonalLoop=1;jettySize=auto;html=1;" edge="1" parent="77e6c97f196da883-2" source="JHZnZfGuYtohOw9sr2TH-21" target="JHZnZfGuYtohOw9sr2TH-23">
          <mxGeometry relative="1" as="geometry" />
        </mxCell>
        <mxCell id="JHZnZfGuYtohOw9sr2TH-13" value="output:&lt;br&gt;sitemap.xml&lt;br&gt;for webmaster crawler" style="shape=parallelogram;perimeter=parallelogramPerimeter;whiteSpace=wrap;html=1;fixedSize=1;rounded=0;" vertex="1" parent="77e6c97f196da883-2">
          <mxGeometry x="60" y="580" width="120" height="60" as="geometry" />
        </mxCell>
        <mxCell id="77e6c97f196da883-3" value="Controller" style="swimlane;html=1;startSize=20;" parent="77e6c97f196da883-1" vertex="1">
          <mxGeometry x="260" y="20" width="280" height="670" as="geometry" />
        </mxCell>
        <mxCell id="JHZnZfGuYtohOw9sr2TH-7" value="load conference data" style="rounded=0;whiteSpace=wrap;html=1;" vertex="1" parent="77e6c97f196da883-3">
          <mxGeometry x="80" y="130" width="120" height="40" as="geometry" />
        </mxCell>
        <mxCell id="JHZnZfGuYtohOw9sr2TH-9" value="" style="edgeStyle=orthogonalEdgeStyle;rounded=0;orthogonalLoop=1;jettySize=auto;html=1;" edge="1" parent="77e6c97f196da883-3" source="JHZnZfGuYtohOw9sr2TH-7" target="JHZnZfGuYtohOw9sr2TH-8">
          <mxGeometry relative="1" as="geometry" />
        </mxCell>
        <mxCell id="JHZnZfGuYtohOw9sr2TH-8" value="save to array" style="whiteSpace=wrap;html=1;rounded=0;" vertex="1" parent="77e6c97f196da883-3">
          <mxGeometry x="80" y="210" width="120" height="60" as="geometry" />
        </mxCell>
        <mxCell id="JHZnZfGuYtohOw9sr2TH-5" value="Webmaster" style="swimlane;html=1;startSize=20;" vertex="1" parent="77e6c97f196da883-1">
          <mxGeometry x="540" y="20" width="350" height="670" as="geometry" />
        </mxCell>
        <mxCell id="JHZnZfGuYtohOw9sr2TH-30" value="finish" style="ellipse;whiteSpace=wrap;html=1;rounded=0;" vertex="1" parent="JHZnZfGuYtohOw9sr2TH-5">
          <mxGeometry x="115" y="600" width="120" height="30" as="geometry" />
        </mxCell>
        <mxCell id="JHZnZfGuYtohOw9sr2TH-16" value="submit sitemap.xml to &lt;br&gt;google search console, &lt;br&gt;and bing webmaster" style="shape=parallelogram;perimeter=parallelogramPerimeter;whiteSpace=wrap;html=1;fixedSize=1;rounded=0;" vertex="1" parent="JHZnZfGuYtohOw9sr2TH-5">
          <mxGeometry x="95" y="340" width="160" height="60" as="geometry" />
        </mxCell>
        <mxCell id="JHZnZfGuYtohOw9sr2TH-20" value="" style="edgeStyle=orthogonalEdgeStyle;rounded=1;orthogonalLoop=1;jettySize=auto;html=1;" edge="1" parent="JHZnZfGuYtohOw9sr2TH-5" source="JHZnZfGuYtohOw9sr2TH-16" target="JHZnZfGuYtohOw9sr2TH-19">
          <mxGeometry relative="1" as="geometry" />
        </mxCell>
        <mxCell id="JHZnZfGuYtohOw9sr2TH-19" value="crawling based on sitemap.xml, meta title, description, keywords, images, alt images, h1, h2, font size, etc" style="whiteSpace=wrap;html=1;rounded=0;" vertex="1" parent="JHZnZfGuYtohOw9sr2TH-5">
          <mxGeometry x="82.5" y="430" width="185" height="60" as="geometry" />
        </mxCell>
        <mxCell id="JHZnZfGuYtohOw9sr2TH-29" value="" style="edgeStyle=orthogonalEdgeStyle;rounded=1;orthogonalLoop=1;jettySize=auto;html=1;" edge="1" parent="JHZnZfGuYtohOw9sr2TH-5" source="JHZnZfGuYtohOw9sr2TH-19" target="JHZnZfGuYtohOw9sr2TH-28">
          <mxGeometry relative="1" as="geometry" />
        </mxCell>
        <mxCell id="JHZnZfGuYtohOw9sr2TH-28" value="sitemap links and its crawled meta will appear on search engine" style="whiteSpace=wrap;html=1;rounded=0;" vertex="1" parent="JHZnZfGuYtohOw9sr2TH-5">
          <mxGeometry x="115" y="520" width="120" height="60" as="geometry" />
        </mxCell>
        <mxCell id="JHZnZfGuYtohOw9sr2TH-31" value="" style="edgeStyle=orthogonalEdgeStyle;rounded=1;orthogonalLoop=1;jettySize=auto;html=1;" edge="1" parent="JHZnZfGuYtohOw9sr2TH-5" source="JHZnZfGuYtohOw9sr2TH-28" target="JHZnZfGuYtohOw9sr2TH-30">
          <mxGeometry relative="1" as="geometry" />
        </mxCell>
        <mxCell id="JHZnZfGuYtohOw9sr2TH-6" style="edgeStyle=orthogonalEdgeStyle;rounded=0;orthogonalLoop=1;jettySize=auto;html=1;" edge="1" parent="77e6c97f196da883-1" source="JHZnZfGuYtohOw9sr2TH-3" target="JHZnZfGuYtohOw9sr2TH-7">
          <mxGeometry relative="1" as="geometry">
            <mxPoint x="380" y="170" as="targetPoint" />
          </mxGeometry>
        </mxCell>
        <mxCell id="JHZnZfGuYtohOw9sr2TH-12" value="" style="edgeStyle=orthogonalEdgeStyle;rounded=0;orthogonalLoop=1;jettySize=auto;html=1;" edge="1" parent="77e6c97f196da883-1" source="JHZnZfGuYtohOw9sr2TH-8" target="JHZnZfGuYtohOw9sr2TH-11">
          <mxGeometry relative="1" as="geometry" />
        </mxCell>
        <mxCell id="JHZnZfGuYtohOw9sr2TH-18" style="edgeStyle=orthogonalEdgeStyle;rounded=1;orthogonalLoop=1;jettySize=auto;html=1;entryX=0.5;entryY=0;entryDx=0;entryDy=0;dashed=1;" edge="1" parent="77e6c97f196da883-1" source="JHZnZfGuYtohOw9sr2TH-13" target="JHZnZfGuYtohOw9sr2TH-16">
          <mxGeometry relative="1" as="geometry" />
        </mxCell>
        <mxCell id="JHZnZfGuYtohOw9sr2TH-27" value="required once for first manually&lt;br&gt;submit, &lt;br&gt;next automatically as changefreq is defined" style="edgeLabel;html=1;align=center;verticalAlign=middle;resizable=0;points=[];" vertex="1" connectable="0" parent="JHZnZfGuYtohOw9sr2TH-18">
          <mxGeometry x="-0.1499" y="3" relative="1" as="geometry">
            <mxPoint as="offset" />
          </mxGeometry>
        </mxCell>
        <mxCell id="JHZnZfGuYtohOw9sr2TH-22" value="" style="edgeStyle=orthogonalEdgeStyle;rounded=1;orthogonalLoop=1;jettySize=auto;html=1;entryX=0.5;entryY=0;entryDx=0;entryDy=0;" edge="1" parent="77e6c97f196da883-1" source="JHZnZfGuYtohOw9sr2TH-8" target="JHZnZfGuYtohOw9sr2TH-21">
          <mxGeometry relative="1" as="geometry">
            <Array as="points">
              <mxPoint x="400" y="320" />
              <mxPoint x="130" y="320" />
            </Array>
          </mxGeometry>
        </mxCell>
      </root>
    </mxGraphModel>
  </diagram>
</mxfile>
